# File created by Blade
# Date/Time:  Tue Apr 07 20:41:02 2015
# Frame Rate: 120.000 fps
#------------------------------------------------------
:FULLY-SPECIFIED
:DEGREES
1650
root 1.094624 33.422546 -0.878578 11.943140 -1.168343 0.424299
Spine -10.973730 -3.392168 -3.738633
Head 5.966005 -1.419038 0.402631
LeftShoulder -20.589403 35.769792 24.398857
LeftArm 54.710444 -56.018963 -53.122885
LeftForeArm 9.586445 -0.000000 1.511578
LeftHand 9.367029 -0.000000 11.707535
LeftHandThumb1 -26.253704 0.000000 33.147579
RightShoulder -6.293675 7.104951 -31.256496
RightArm 6.892176 22.457407 43.601240
RightForeArm -14.409159 -0.000000 6.886555
RightHand 6.957242 -0.000000 -5.830797
RightHandThumb1 -24.326973 -0.000000 -32.862282
LeftUpLeg -6.927935 -6.282405 2.406868
LeftLeg 2.144210 -0.000000 -0.000000
LeftFoot -2.509663 11.828067 -10.443765
LeftToeBase -13.101911 -0.000000 0.000000
RightUpLeg -10.165217 -6.504383 1.837372
RightLeg 4.638273 -0.000000 -0.000000
RightFoot -4.645690 -3.452291 15.662398
RightToeBase 3.834103 -0.000000 -0.000000
1651
root 1.100399 33.388109 -0.910376 11.876422 -1.200627 0.547031
Spine -10.876802 -3.475164 -3.792247
Head 5.933661 -1.366309 0.400709
LeftShoulder -20.589639 35.664196 24.499005
LeftArm 54.596062 -56.179339 -52.976451
LeftForeArm 9.680287 -0.000000 1.353377
LeftHand 9.113625 -0.000000 11.514336
LeftHandThumb1 -26.253704 0.000000 33.147579
RightShoulder -6.283191 7.230015 -31.400347
RightArm 6.922070 22.255489 43.370490
RightForeArm -14.549632 -0.000000 6.729188
RightHand 6.743580 -0.000000 -5.682159
RightHandThumb1 -24.326973 -0.000000 -32.862282
LeftUpLeg -6.847238 -6.346806 2.272167
LeftLeg 2.013570 -0.000000 -0.000000
LeftFoot -2.812358 11.932765 -10.718690
LeftToeBase -12.588384 -0.000000 0.000000
RightUpLeg -10.174332 -6.406939 1.666995
RightLeg 4.769248 -0.000000 -0.000000
RightFoot -5.128048 -3.300826 15.464171
RightToeBase 3.840520 -0.000000 -0.000000
1652
root 1.111516 33.347495 -0.941208 11.788969 -1.265159 0.709849
Spine -10.764107 -3.536476 -3.895618
Head 5.888176 -1.335255 0.417402
LeftShoulder -20.628547 35.622001 24.570668
LeftArm 54.622152 -56.384936 -52.952763
LeftForeArm 9.804967 -0.000000 1.176379
LeftHand 9.012958 -0.000000 11.275646
LeftHandThumb1 -26.253704 0.000000 33.147579
RightShoulder -6.274292 7.282687 -31.524817
RightArm 7.026978 22.197170 43.152775
RightForeArm -14.780453 -0.000000 6.560435
RightHand 6.800638 -0.000000 -5.745188
RightHandThumb1 -24.326973 -0.000000 -32.862282
LeftUpLeg -6.737286 -6.288432 2.072703
LeftLeg 1.866895 -0.000000 -0.000000
LeftFoot -3.081026 11.943911 -10.991210
LeftToeBase -12.582627 -0.000000 0.000000
RightUpLeg -10.172825 -6.250024 1.427803
RightLeg 4.976527 -0.000000 -0.000000
RightFoot -5.699574 -3.121845 15.106746
RightToeBase 3.703306 -0.000000 -0.000000
1653
root 1.119847 33.301744 -0.971903 11.680420 -1.299029 0.826248
Spine -10.625213 -3.603987 -3.955584
Head 5.845549 -1.304496 0.432576
LeftShoulder -20.628952 35.562081 24.648721
LeftArm 54.388970 -56.458917 -52.598264
LeftForeArm 9.684480 0.000000 1.052765
LeftHand 8.477423 -0.000000 11.484375
LeftHandThumb1 -26.253704 0.000000 33.147579
RightShoulder -6.284004 7.395698 -31.667291
RightArm 7.085976 22.046366 42.917751
RightForeArm -14.969270 -0.000000 6.404709
RightHand 6.669129 -0.000000 -5.497390
RightHandThumb1 -24.326973 -0.000000 -32.862282
LeftUpLeg -6.620467 -6.181228 1.924940
LeftLeg 1.765898 -0.000000 -0.000000
LeftFoot -3.471843 11.849652 -11.321694
LeftToeBase -12.360504 -0.000000 0.000000
RightUpLeg -10.128449 -6.149528 1.288183
RightLeg 5.078538 -0.000000 -0.000000
RightFoot -6.314071 -3.122440 14.986140
RightToeBase 3.726123 -0.000000 -0.000000
1654
root 1.129503 33.251421 -1.001980 11.572172 -1.330808 0.951354
Spine -10.493513 -3.670679 -4.015580
Head 5.804433 -1.287194 0.416062
LeftShoulder -20.655495 35.533171 24.692935
LeftArm 54.387547 -56.690095 -52.512127
LeftForeArm 9.813874 -0.000000 0.926357
LeftHand 8.245207 -0.000000 11.355296
LeftHandThumb1 -26.253704 0.000000 33.147579
RightShoulder -6.277513 7.522741 -31.830101
RightArm 7.093345 21.888049 42.671206
RightForeArm -15.123971 -0.000000 6.277577
RightHand 6.660981 -0.000000 -5.631454
RightHandThumb1 -24.326973 -0.000000 -32.862282
LeftUpLeg -6.494771 -6.085292 1.775575
LeftLeg 1.638769 -0.000000 -0.000000
LeftFoot -3.864155 11.729584 -11.701184
LeftToeBase -11.920890 -0.000000 0.000000
RightUpLeg -10.114451 -6.133342 1.170118
RightLeg 5.240204 -0.000000 -0.000000
RightFoot -7.019403 -3.111404 14.889623
RightToeBase 3.896946 -0.000000 -0.000000
1655
root 1.137445 33.197853 -1.034797 11.437958 -1.331358 1.037613
Spine -10.317558 -3.747230 -4.027891
Head 5.740849 -1.279904 0.369276
LeftShoulder -20.635314 35.403131 24.777579
LeftArm 54.189688 -56.850454 -52.250769
LeftForeArm 9.883621 -0.000000 0.829100
LeftHand 7.912219 -0.000000 11.205794
LeftHandThumb1 -26.253704 0.000000 33.147579
RightShoulder -6.272959 7.710638 -32.023547
RightArm 7.046624 21.716123 42.423993
RightForeArm -15.274507 -0.000000 6.172604
RightHand 6.440979 -0.000000 -5.364368
RightHandThumb1 -24.326973 -0.000000 -32.862282
LeftUpLeg -6.349631 -5.982740 1.668262
LeftLeg 1.537634 -0.000000 -0.000000
LeftFoot -4.329856 11.555347 -12.031469
LeftToeBase -11.517169 -0.000000 0.000000
RightUpLeg -9.988785 -6.005089 1.053338
RightLeg 5.242585 -0.000000 -0.000000
RightFoot -7.642670 -3.134789 14.561577
RightToeBase 4.016978 -0.000000 -0.000000
1656
root 1.147747 33.141466 -1.065810 11.300297 -1.320373 1.101517
Spine -10.140382 -3.831417 -4.014569
Head 5.672485 -1.275329 0.334266
LeftShoulder -20.702860 35.405925 24.793853
LeftArm 54.352658 -57.058865 -52.289518
LeftForeArm 10.039941 -0.000000 0.706508
LeftHand 7.619863 -0.000000 11.646584
LeftHandThumb1 -26.253704 0.000000 33.147579
RightShoulder -6.319381 7.733856 -32.137498
RightArm 7.241340 21.620529 42.159218
RightForeArm -15.429336 -0.000000 5.953666
RightHand 6.505716 -0.000000 -5.368456
RightHandThumb1 -24.326973 -0.000000 -32.862282
LeftUpLeg -6.184781 -5.940262 1.594002
LeftLeg 1.416127 -0.000000 -0.000000
LeftFoot -4.847262 11.414604 -12.372668
LeftToeBase -11.034349 -0.000000 0.000000
RightUpLeg -9.850272 -5.940505 0.987307
RightLeg 5.218213 -0.000000 -0.000000
RightFoot -8.269273 -3.210277 14.233997
RightToeBase 4.129697 -0.000000 -0.000000
1657
root 1.148988 33.087598 -1.099444 11.170547 -1.281152 1.021234
Spine -9.967704 -3.887771 -3.849736
Head 5.610649 -1.271703 0.271835
LeftShoulder -20.696070 35.308679 24.824697
LeftArm 54.339791 -57.271216 -52.172182
LeftForeArm 10.193830 -0.000000 0.607461
LeftHand 7.592525 -0.000000 11.520568
LeftHandThumb1 -26.253704 0.000000 33.147579
RightShoulder -6.363415 7.863276 -32.273653
RightArm 7.293435 21.439968 41.852445
RightForeArm -15.601671 0.000000 5.790691
RightHand 6.456761 -0.000000 -5.307434
RightHandThumb1 -24.326973 -0.000000 -32.862282
LeftUpLeg -6.031879 -5.870084 1.681100
LeftLeg 1.303902 -0.000000 -0.000000
LeftFoot -5.350701 11.207033 -12.626615
LeftToeBase -10.967939 -0.000000 0.000000
RightUpLeg -9.657031 -5.732761 1.076721
RightLeg 5.064580 -0.000000 -0.000000
RightFoot -8.797369 -3.486121 13.981762
RightToeBase 4.174775 -0.000000 -0.000000
1658
root 1.157899 33.033288 -1.134199 11.033479 -1.213422 0.943716
Spine -9.779249 -3.977207 -3.646850
Head 5.541996 -1.273123 0.132759
LeftShoulder -20.730591 35.227355 24.790651
LeftArm 54.321918 -57.452410 -52.042779
LeftForeArm 10.304599 0.000000 0.560827
LeftHand 7.215832 -0.000000 11.551453
LeftHandThumb1 -26.253704 0.000000 33.147579
RightShoulder -6.409512 8.027955 -32.433984
RightArm 7.343715 21.259385 41.542480
RightForeArm -15.721046 -0.000000 5.623068
RightHand 6.552830 -0.000000 -5.375265
RightHandThumb1 -24.326973 -0.000000 -32.862282
LeftUpLeg -5.890678 -5.940948 1.762231
LeftLeg 1.237092 -0.000000 -0.000000
LeftFoot -5.972466 11.162441 -12.876803
LeftToeBase -10.382870 -0.000000 0.000000
RightUpLeg -9.475104 -5.607081 1.131897
RightLeg 4.942377 -0.000000 -0.000000
RightFoot -9.292998 -3.584127 13.523030
RightToeBase 4.272641 -0.000000 -0.000000
1659
root 1.160748 32.985022 -1.165746 10.900680 -1.125819 0.766152
Spine -9.599205 -4.062998 -3.348608
Head 5.470704 -1.266357 0.018697
LeftShoulder -20.814260 35.204206 24.739297
LeftArm 54.668480 -57.748082 -52.383802
LeftForeArm 10.619224 -0.000000 0.637130
LeftHand 6.897544 -0.000000 11.416409
LeftHandThumb1 -26.253704 0.000000 33.147579
RightShoulder -6.438388 8.184014 -32.571167
RightArm 7.345855 21.143690 41.240743
RightForeArm -15.935796 0.000000 5.527650
RightHand 6.149941 0.000000 -5.145426
RightHandThumb1 -24.326973 -0.000000 -32.862282
LeftUpLeg -5.738438 -5.995172 1.952848
LeftLeg 1.155414 -0.000000 -0.000000
LeftFoot -6.540292 11.070031 -13.034917
LeftToeBase -9.815476 -0.000000 0.000000
RightUpLeg -9.239135 -5.379698 1.293451
RightLeg 4.723739 -0.000000 -0.000000
RightFoot -9.695307 -3.848304 13.240808
RightToeBase 4.396011 -0.000000 -0.000000
1660
root 1.173596 32.941014 -1.199088 10.778106 -1.035809 0.646411
Spine -9.436059 -4.165448 -3.087363
Head 5.420735 -1.244511 -0.114620
LeftShoulder -20.860321 35.113653 24.701606
LeftArm 54.686060 -57.892231 -52.391617
LeftForeArm 10.815244 -0.000000 0.705441
LeftHand 6.580104 0.000000 11.394543
LeftHandThumb1 -26.253704 0.000000 33.147579
RightShoulder -6.465355 8.257432 -32.700136
RightArm 7.418368 21.183973 40.982699
RightForeArm -16.188853 0.000000 5.402930
RightHand 6.373840 -0.000000 -5.391288
RightHandThumb1 -24.326973 -0.000000 -32.862282
LeftUpLeg -5.634495 -6.057013 2.054478
LeftLeg 1.137383 -0.000000 -0.000000
LeftFoot -7.061290 11.054990 -13.081947
LeftToeBase -9.501582 -0.000000 0.000000
RightUpLeg -9.000592 -5.055151 1.343993
RightLeg 4.476868 -0.000000 -0.000000
RightFoot -10.067625 -4.169774 12.677077
RightToeBase 4.524161 -0.000000 -0.000000
